<?xml version="1.0" encoding="utf-8"?>
<!-- Generator: Adobe Illustrator 17.1.0, SVG Export Plug-In . SVG Version: 6.00 Build 0)  -->
<!DOCTYPE svg PUBLIC "-//W3C//DTD SVG 1.1//EN" "http://www.w3.org/Graphics/SVG/1.1/DTD/svg11.dtd">
<svg version="1.1" id="graph-increase" xmlns="http://www.w3.org/2000/svg" xmlns:xlink="http://www.w3.org/1999/xlink" x="0px"
	 y="0px" viewBox="0 0 99.997 99.9965" enable-background="new 0 0 99.997 99.9965" xml:space="preserve">
<path id="graph-increase-label" fill="#324058" d="M49.9975,0C22.3867,0,0,22.3906,0,50c0,27.6137,22.3867,49.9965,49.9975,49.9965
	C77.6094,99.9965,99.997,77.6137,99.997,50C99.997,22.3906,77.6094,0,49.9975,0z"/>
<g id="graph-increase-graph-increase">
	<g>
		<path fill="#FFFFFF" d="M42.1782,78.145H29.7475V60.4506h12.4307V78.145L42.1782,78.145z M31.6509,76.2417h8.6235V62.354h-8.6235
			V76.2417L31.6509,76.2417z"/>
	</g>
	<g>
		<path fill="#EB8619" d="M70.2519,78.145H57.8193V36.7661h12.4326V78.145L70.2519,78.145z M59.7236,76.2417h8.624V38.6694h-8.624
			V76.2417L59.7236,76.2417z"/>
	</g>
	<g>
		<path fill="#43C7D2" d="M56.2158,78.145H43.7842V49.0464h12.4316V78.145L56.2158,78.145z M45.6875,76.2417h8.625V50.9492h-8.625
			V76.2417L45.6875,76.2417z"/>
	</g>
	<g>
		<polygon fill="#43C7D2" points="34.8828,55.936 33.5361,54.5903 65.9951,22.1308 67.3408,23.4756 34.8828,55.936 		"/>
	</g>
	<g>
		<path fill="#43C7D2" d="M66.6679,33.4052c-0.5263,0-0.9521-0.4262-0.9521-0.9511v-8.6997h-8.6992
			c-0.5254,0-0.9522-0.4258-0.9522-0.9517c0-0.5249,0.4268-0.9512,0.9522-0.9512h9.6513c0.5245,0,0.9522,0.4263,0.9522,0.9512
			v9.6514C67.6201,32.979,67.1924,33.4052,66.6679,33.4052L66.6679,33.4052z"/>
	</g>
</g>
</svg>
