<?xml version="1.0" ?><svg enable-background="new 0 0 64 64" id="Layer_1" version="1.1" viewBox="0 0 64 64" xml:space="preserve" xmlns="http://www.w3.org/2000/svg" xmlns:xlink="http://www.w3.org/1999/xlink"><g id="Flat_1"><g><g><g><circle cx="32" cy="32" fill="#E9EDF1" r="32"/></g></g><g><g><g><path d="M44.498,57.016h-25c-0.825,0-1.5-0.675-1.5-1.5v-47c0-0.825,0.675-1.5,1.5-1.5h25       c0.825,0,1.5,0.675,1.5,1.5v47C45.998,56.341,45.323,57.016,44.498,57.016z" fill="#FFFFFF"/></g></g><g><g><rect fill="#333333" height="40" width="25" x="19.498" y="11.016"/></g></g><g><g><path d="M34.972,9.516h-6c-0.275,0-0.5-0.225-0.5-0.5l0,0c0-0.275,0.225-0.5,0.5-0.5h6       c0.275,0,0.5,0.225,0.5,0.5l0,0C35.472,9.291,35.247,9.516,34.972,9.516z" fill="#999999"/></g></g><g><g><path d="M34.998,54.016h-6c-0.275,0-0.5-0.225-0.5-0.5l0,0c0-0.275,0.225-0.5,0.5-0.5h6       c0.275,0,0.5,0.225,0.5,0.5l0,0C35.498,53.791,35.273,54.016,34.998,54.016z" fill="#999999"/></g></g></g><g><g><g><g><rect fill="#DB2B42" height="1" width="1" x="22.498" y="42.016"/></g></g><g><g><rect fill="#DB2B42" height="1" width="1" x="24.498" y="42.016"/></g></g><g><g><rect fill="#DB2B42" height="1" width="1" x="26.498" y="42.016"/></g></g><g><g><rect fill="#DB2B42" height="1" width="1" x="28.498" y="42.016"/></g></g><g><g><rect fill="#DB2B42" height="1" width="1" x="30.498" y="42.016"/></g></g><g><g><rect fill="#DB2B42" height="1" width="1" x="32.498" y="42.016"/></g></g><g><g><rect fill="#DB2B42" height="1" width="1" x="34.498" y="42.016"/></g></g><g><g><rect fill="#DB2B42" height="1" width="1" x="36.498" y="42.016"/></g></g><g><g><rect fill="#DB2B42" height="1" width="1" x="38.498" y="42.016"/></g></g><g><g><rect fill="#DB2B42" height="1" width="1" x="40.498" y="42.016"/></g></g></g><g><g><g><rect fill="#DB2B42" height="1" width="1" x="22.498" y="45.016"/></g></g><g><g><rect fill="#DB2B42" height="1" width="1" x="24.498" y="45.016"/></g></g><g><g><rect fill="#DB2B42" height="1" width="1" x="26.498" y="45.016"/></g></g><g><g><rect fill="#DB2B42" height="1" width="1" x="28.498" y="45.016"/></g></g><g><g><rect fill="#DB2B42" height="1" width="1" x="30.498" y="45.016"/></g></g><g><g><rect fill="#DB2B42" height="1" width="1" x="32.498" y="45.016"/></g></g><g><g><rect fill="#DB2B42" height="1" width="1" x="34.498" y="45.016"/></g></g><g><g><rect fill="#DB2B42" height="1" width="1" x="36.498" y="45.016"/></g></g><g><g><rect fill="#DB2B42" height="1" width="1" x="38.498" y="45.016"/></g></g><g><g><rect fill="#DB2B42" height="1" width="1" x="40.498" y="45.016"/></g></g></g><g><g><rect fill="#E9EDF1" height="1" width="19" x="22.498" y="39.016"/></g></g></g><g><g><polygon fill="#DB2B42" points="29.144,21.91 36.36,26.076 29.144,30.242     "/></g><g><path d="M32,34.312c-4.561,0-8.271-3.71-8.271-8.271S27.439,17.77,32,17.77s8.271,3.71,8.271,8.271      S36.561,34.312,32,34.312z M32,18.77c-4.009,0-7.271,3.262-7.271,7.271s3.262,7.271,7.271,7.271s7.271-3.262,7.271-7.271      S36.009,18.77,32,18.77z" fill="#999999"/></g></g></g></g></svg>